<svg width="105" height="120" viewBox="0 0 105 120" fill="none" xmlns="http://www.w3.org/2000/svg">
<path fill-rule="evenodd" clip-rule="evenodd" d="M101.709 92.1858L87.0382 100.67C86.865 100.794 86.667 100.893 86.4691 100.992L55.9142 118.68C54.8999 119.349 53.7123 119.697 52.5 119.697C51.3619 119.697 50.2239 119.374 49.259 118.779C33.5733 110.369 18.4567 100.943 3.06787 92.037C1.16283 90.9207 0 88.8865 0 86.6787V33.0212C0 30.7142 1.28654 28.5808 3.34002 27.5141L49.4569 0.821758C51.3619 -0.269749 53.6875 -0.269749 55.5431 0.796951C71.2783 9.20651 86.4692 18.7076 102.006 27.6877H101.982C102.031 27.7125 102.105 27.7621 102.155 27.7869C102.204 27.8117 102.254 27.8614 102.303 27.8862C102.353 27.911 102.402 27.9358 102.452 27.9854L102.699 28.1838C102.749 28.2087 102.773 28.2583 102.823 28.2831L102.798 28.2583C102.872 28.3079 102.922 28.3823 102.996 28.4319L103.021 28.4567C103.095 28.5063 103.144 28.5808 103.194 28.6304L103.268 28.7048C103.342 28.7544 103.392 28.8288 103.441 28.8784C103.466 28.9032 103.491 28.9281 103.516 28.9529L103.54 28.9777C103.565 29.0273 103.615 29.0521 103.639 29.1017L103.812 29.325C103.862 29.3746 103.887 29.449 103.936 29.4986L104.06 29.6971C104.085 29.7467 104.134 29.7963 104.159 29.8707L104.233 29.9948C104.258 30.0196 104.258 30.0444 104.258 30.0692C104.283 30.1188 104.332 30.1932 104.357 30.2428L104.381 30.2924C104.381 30.3172 104.406 30.3421 104.406 30.3669C104.431 30.4165 104.456 30.4909 104.48 30.5405L104.678 31.0366C104.678 31.0366 104.678 31.0366 104.678 31.0615C104.728 31.1607 104.753 31.2847 104.777 31.4088C104.852 31.6816 104.926 32.0537 104.975 32.4258C104.975 32.4755 104.975 32.5251 105 32.5747V32.5995C105 32.6491 105 32.6987 105 32.7483V32.8724C105 32.922 105 32.9716 105 33.0212V86.7283C105 89.0354 103.713 91.1687 101.66 92.2106L101.709 92.1858Z" fill="white"/>
<path fill-rule="evenodd" clip-rule="evenodd" d="M21.3761 77.897L52.5248 95.9317L83.6735 77.897L52.5248 59.8623L21.3761 77.897Z" fill="#EDBC53"/>
<path fill-rule="evenodd" clip-rule="evenodd" d="M52.5248 23.7682L37.3339 14.9866L52.5248 6.18008L67.7156 14.9866L52.5248 23.7682Z" fill="#EDBC53"/>
<path fill-rule="evenodd" clip-rule="evenodd" d="M52.5248 59.8624V23.7682L83.6735 41.8525V77.897L52.5248 59.8624Z" fill="#D43F3F"/>
<path fill-rule="evenodd" clip-rule="evenodd" d="M6.16052 69.0905L21.3761 77.897L21.005 95.113L6.16052 86.6787V69.0905Z" fill="#D43F3F"/>
<path fill-rule="evenodd" clip-rule="evenodd" d="M21.3761 41.8277L52.5248 23.7682V59.8624L21.3761 77.897V41.8277Z" fill="#66B8E8"/>
<path fill-rule="evenodd" clip-rule="evenodd" d="M83.6735 77.897L98.8643 69.0905V86.6787L84.1188 95.0386L83.6735 77.897Z" fill="#66B8E8"/>
<path d="M99.9034 88.8121L85.0342 97.4201C84.9353 97.4945 84.8116 97.569 84.6879 97.6186L53.9103 115.43C53.5144 115.703 53.0444 115.877 52.5495 115.877C52.0547 115.877 51.6094 115.728 51.2383 115.48C35.8742 107.244 20.2133 97.5193 5.02244 88.7377C4.28022 88.316 3.85962 87.5221 3.85962 86.7035V33.046C3.85962 32.1034 4.40391 31.3095 5.17088 30.9374L51.3867 4.19552C52.1289 3.7738 53.0196 3.7986 53.7124 4.19552C69.1259 12.4314 84.8363 22.2054 100.077 31.0367L100.101 31.0615H100.126L100.151 31.0863L100.176 31.1111L100.2 31.1359L100.225 31.1607L100.25 31.1855L100.275 31.2103L100.299 31.2351L100.324 31.2599H100.349L100.374 31.2847L100.398 31.3095H100.423L100.448 31.3343L100.472 31.3592L100.497 31.384L100.522 31.4088L100.547 31.4336L100.571 31.4584L100.596 31.4832L100.621 31.508L100.646 31.5328V31.5576L100.67 31.5824L100.695 31.6072L100.72 31.632V31.6568V31.6816L100.745 31.7064L100.769 31.7313L100.794 31.7561L100.819 31.7809L100.844 31.8057L100.868 31.8305L100.893 31.8553V31.8801L100.918 31.9049L100.943 31.9297V31.9545V31.9793L100.967 32.0041V32.0289V32.0537L100.992 32.0786V32.1034L101.042 32.2026V32.2274V32.2522V32.277V32.3018C101.091 32.4507 101.116 32.5995 101.116 32.7235V32.7731V32.798V32.8724V32.8972V32.9468V33.0212V86.6043C101.116 87.5469 100.571 88.3408 99.8045 88.7129L99.9034 88.8121ZM10.8613 33.0212L21.3761 39.0989L47.8488 23.7682L37.3339 17.6905L10.8613 33.0212ZM19.0257 43.1673L8.5109 37.0896V67.751L19.0257 73.8287V43.1673ZM42.01 14.9865L52.5248 21.0891L63.0397 14.9865L52.5248 8.88403L42.01 14.9865ZM54.8752 97.2713V109.451L74.5441 98.0651L81.3478 94.1208V81.9406L54.8752 97.2713ZM50.1744 109.451V97.2713L23.7018 81.9406V94.1208L50.1744 109.451ZM86.0238 79.2366V91.4168L96.5387 85.3391V73.1589L86.0238 79.2366ZM19.0257 91.4168V79.2366L8.5109 73.1589V85.3391L19.0257 91.4168ZM96.5387 37.0896L86.0238 43.1921V73.8039L96.5387 67.7262V37.0648V37.0896ZM83.7229 39.1237L94.2131 33.0212L67.7404 17.6905L57.2256 23.7682L83.7229 39.1237ZM52.5495 62.5663L26.0769 77.897L52.5495 93.2277L66.9487 84.8926L79.0222 77.897L52.5495 62.5663ZM23.7512 73.8287L50.2239 58.498V27.8366L23.7512 43.1425V73.8039V73.8287ZM54.8999 58.498L81.3726 73.8287V43.1673L54.8999 27.8614V58.5228V58.498Z" fill="#253254"/>
<path d="M52.5248 77.9963C62.5131 77.9963 70.6103 69.8774 70.6103 59.8623C70.6103 49.8473 62.5131 41.7285 52.5248 41.7285C42.5364 41.7285 34.4392 49.8473 34.4392 59.8623C34.4392 69.8774 42.5364 77.9963 52.5248 77.9963Z" fill="#253254"/>
</svg>
