<svg xmlns="http://www.w3.org/2000/svg" xmlns:xlink="http://www.w3.org/1999/xlink" preserveAspectRatio="xMidYMid meet" width="256" height="256" viewBox="0 0 256 256"><defs><animate repeatCount="indefinite" dur="2s" begin="0s" xlink:href="#_R_G_L_6_G" fill="freeze" attributeName="opacity" from="0" to="0" keyTimes="0;0.1666667;0.5833333;0.6666667;1" values="0;1;1;0;0" keySplines="0.167 0.167 0.833 0.833;0.167 0.167 0.833 0.833;0.167 0.167 0.833 0.833;0 0 0 0" calcMode="spline"/><animateTransform repeatCount="indefinite" dur="2s" begin="0s" xlink:href="#_R_G_L_6_G_N_5_T_0" fill="freeze" attributeName="transform" from="0" to="-90" type="rotate" additive="sum" keyTimes="0;0.3333333;0.6666667;1" values="0;0;-90;-90" keySplines="0.167 0.167 0.833 0.833;0.167 0.167 0.833 0.833;0 0 0 0" calcMode="spline"/><animateTransform repeatCount="indefinite" dur="2s" begin="0s" xlink:href="#_R_G_L_6_G_N_5_T_0" fill="freeze" attributeName="transform" from="0.5 0.5" to="1 1" type="scale" additive="sum" keyTimes="0;0.1666667;1" values="0.5 0.5;1 1;1 1" keySplines="0.167 0.167 0.833 0.833;0 0 0 0" calcMode="spline"/><animateTransform repeatCount="indefinite" dur="2s" begin="0s" xlink:href="#_R_G_L_6_G_N_5_T_0" fill="freeze" attributeName="transform" from="-59.732 -176.462" to="-59.732 -176.462" type="translate" additive="sum" keyTimes="0;1" values="-59.732 -176.462;-59.732 -176.462" keySplines="0 0 1 1" calcMode="spline"/><animate repeatCount="indefinite" dur="2s" begin="0s" xlink:href="#_R_G_L_5_G" fill="freeze" attributeName="opacity" from="0" to="0" keyTimes="0;0.1666667;0.5833333;0.6666667;1" values="0;1;1;0;0" keySplines="0.167 0.167 0.833 0.833;0.167 0.167 0.833 0.833;0.167 0.167 0.833 0.833;0 0 0 0" calcMode="spline"/><animateTransform repeatCount="indefinite" dur="2s" begin="0s" xlink:href="#_R_G_L_5_G_N_5_T_0" fill="freeze" attributeName="transform" from="0" to="-90" type="rotate" additive="sum" keyTimes="0;0.3333333;0.6666667;1" values="0;0;-90;-90" keySplines="0.167 0.167 0.833 0.833;0.167 0.167 0.833 0.833;0 0 0 0" calcMode="spline"/><animateTransform repeatCount="indefinite" dur="2s" begin="0s" xlink:href="#_R_G_L_5_G_N_5_T_0" fill="freeze" attributeName="transform" from="0.5 0.5" to="1 1" type="scale" additive="sum" keyTimes="0;0.1666667;1" values="0.5 0.5;1 1;1 1" keySplines="0.167 0.167 0.833 0.833;0 0 0 0" calcMode="spline"/><animateTransform repeatCount="indefinite" dur="2s" begin="0s" xlink:href="#_R_G_L_5_G_N_5_T_0" fill="freeze" attributeName="transform" from="-59.732 -176.462" to="-59.732 -176.462" type="translate" additive="sum" keyTimes="0;1" values="-59.732 -176.462;-59.732 -176.462" keySplines="0 0 1 1" calcMode="spline"/><animate repeatCount="indefinite" dur="2s" begin="0s" xlink:href="#_R_G_L_4_G" fill="freeze" attributeName="opacity" from="0" to="0" keyTimes="0;0.1666667;0.5833333;0.6666667;1" values="0;1;1;0;0" keySplines="0.167 0.167 0.833 0.833;0.167 0.167 0.833 0.833;0.167 0.167 0.833 0.833;0 0 0 0" calcMode="spline"/><animateTransform repeatCount="indefinite" dur="2s" begin="0s" xlink:href="#_R_G_L_4_G" fill="freeze" attributeName="transform" from="0" to="-90" type="rotate" additive="sum" keyTimes="0;0.3333333;0.6666667;1" values="0;0;-90;-90" keySplines="0.167 0.167 0.833 0.833;0.167 0.167 0.833 0.833;0 0 0 0" calcMode="spline"/><animateTransform repeatCount="indefinite" dur="2s" begin="0s" xlink:href="#_R_G_L_4_G" fill="freeze" attributeName="transform" from="0.5 0.5" to="1 1" type="scale" additive="sum" keyTimes="0;0.1666667;1" values="0.5 0.5;1 1;1 1" keySplines="0.167 0.167 0.833 0.833;0 0 0 0" calcMode="spline"/><animateTransform repeatCount="indefinite" dur="2s" begin="0s" xlink:href="#_R_G_L_4_G" fill="freeze" attributeName="transform" from="-59.732 -176.462" to="-59.732 -176.462" type="translate" additive="sum" keyTimes="0;1" values="-59.732 -176.462;-59.732 -176.462" keySplines="0 0 1 1" calcMode="spline"/><animateMotion repeatCount="indefinite" dur="2s" begin="0s" xlink:href="#_R_G_L_0_G" fill="freeze" keyTimes="0;0.1666667;0.3333333;1" path="M91.96 102.11 C91.96,102.11 91.96,109.61 91.96,109.61 C91.96,109.61 91.96,102.11 91.96,102.11 C91.96,102.11 91.96,102.11 91.96,102.11 " keyPoints="0;0.5;1;1" keySplines="0.167 0.167 0.833 0.833;0.167 0.167 0.833 0.833;0 0 0 0" calcMode="spline"/><animateTransform repeatCount="indefinite" dur="2s" begin="0s" xlink:href="#_R_G_L_0_G" fill="freeze" attributeName="transform" from="-29.748 -25.743" to="-29.748 -25.743" type="translate" additive="sum" keyTimes="0;1" values="-29.748 -25.743;-29.748 -25.743" keySplines="0 0 1 1" calcMode="spline"/><animate attributeType="XML" attributeName="opacity" dur="2s" from="0" to="1" xlink:href="#time_group"/></defs><g id="_R_G"><g id="_R_G_L_6_G_N_5_T_0" transform=" translate(194.022, 186.357)"><g id="_R_G_L_6_G" transform=" translate(51.904, 92.212) translate(-58.844, -99.153)"><path id="_R_G_L_6_G_D_0_P_0" fill="#ffffff" fill-opacity="1" fill-rule="nonzero" d=" M117.44 24.28 C117.44,24.28 117.44,174.03 117.44,174.03 C117.44,187.11 106.76,198.06 93.41,198.06 C93.41,198.06 24.54,198.06 24.54,198.06 C11.19,198.06 0.25,187.11 0.25,174.03 C0.25,174.03 0.25,24.28 0.25,24.28 C0.25,11.19 11.19,0.25 24.54,0.25 C24.54,0.25 93.41,0.25 93.41,0.25 C106.76,0.25 117.44,11.19 117.44,24.28z "/></g></g><g id="_R_G_L_5_G_N_5_T_0" transform=" translate(194.022, 186.357)"><g id="_R_G_L_5_G" transform=" translate(51.903, 92.212) translate(-51.904, -92.212)"><path id="_R_G_L_5_G_D_0_P_0" fill="#fafafa" fill-opacity="1" fill-rule="nonzero" d=" M103.56 17.33 C103.56,17.33 103.56,167.09 103.56,167.09 C103.56,176.43 95.82,184.17 86.47,184.17 C86.47,184.17 17.6,184.17 17.6,184.17 C7.99,184.17 0.25,176.43 0.25,167.09 C0.25,167.09 0.25,17.33 0.25,17.33 C0.25,7.99 7.99,0.25 17.6,0.25 C17.6,0.25 86.47,0.25 86.47,0.25 C95.82,0.25 103.56,7.99 103.56,17.33z "/></g></g><g id="_R_G_L_4_G" transform=" translate(194.022, 186.357)"><path id="_R_G_L_4_G_D_0_P_0" fill="#e8e7ed" fill-opacity="1" fill-rule="nonzero" d=" M103.56 17.33 C103.56,17.33 103.56,167.09 103.56,167.09 C103.56,176.43 95.82,184.17 86.47,184.17 C86.47,184.17 17.6,184.17 17.6,184.17 C7.99,184.17 0.25,176.43 0.25,167.09 C0.25,167.09 0.25,17.33 0.25,17.33 C0.25,7.99 7.99,0.25 17.6,0.25 C17.6,0.25 86.47,0.25 86.47,0.25 C95.82,0.25 103.56,7.99 103.56,17.33z  M72.86 7.19 C72.86,10.39 70.19,13.06 66.99,13.06 C66.99,13.06 36.82,13.06 36.82,13.06 C33.62,13.06 30.95,10.39 30.95,7.19 C30.95,7.19 17.6,7.19 17.6,7.19 C11.73,7.19 7.19,11.73 7.19,17.33 C7.19,17.33 7.19,167.09 7.19,167.09 C7.19,172.7 11.73,177.5 17.6,177.5 C17.6,177.5 86.47,177.5 86.47,177.5 C92.08,177.5 96.88,172.7 96.88,167.09 C96.88,167.09 96.88,17.33 96.88,17.33 C96.88,11.73 92.08,7.19 86.47,7.19 C86.47,7.19 72.86,7.19 72.86,7.19z "/></g><g id="_R_G_L_3_G" transform=" translate(110.115, 194.202) translate(-99.153, -58.844)"><path id="_R_G_L_3_G_D_0_P_0" fill="#ffffff" fill-opacity="1" fill-rule="nonzero" d=" M24.28 0.25 C24.28,0.25 173.76,0.25 173.76,0.25 C187.11,0.25 198.06,11.19 198.06,24.27 C198.06,24.27 198.06,93.41 198.06,93.41 C198.06,106.49 187.11,117.44 173.76,117.44 C173.76,117.44 24.28,117.44 24.28,117.44 C10.93,117.44 0.25,106.49 0.25,93.41 C0.25,93.41 0.25,24.27 0.25,24.27 C0.25,11.19 10.93,0.25 24.28,0.25 C24.28,0.25 24.28,0.25 24.28,0.25z "/></g><g id="_R_G_L_2_G" transform=" translate(110.115, 194.203) translate(-92.212, -51.904)"><path id="_R_G_L_2_G_D_0_P_0" fill="#f4f4f6" fill-opacity="1" fill-rule="nonzero" d=" M17.33 0.25 C17.33,0.25 166.82,0.25 166.82,0.25 C176.43,0.25 184.17,7.99 184.17,17.33 C184.17,17.33 184.17,86.47 184.17,86.47 C184.17,95.82 176.43,103.56 166.82,103.56 C166.82,103.56 17.33,103.56 17.33,103.56 C7.99,103.56 0.25,95.82 0.25,86.47 C0.25,86.47 0.25,17.33 0.25,17.33 C0.25,7.99 7.99,0.25 17.33,0.25z "/></g><g id="_R_G_L_1_G" transform=" translate(110.115, 194.203) translate(-92.212, -51.903)"><path id="_R_G_L_1_G_D_0_P_0" fill="#93939d" fill-opacity="1" fill-rule="nonzero" d=" M17.33 0.25 C17.33,0.25 166.82,0.25 166.82,0.25 C176.43,0.25 184.17,7.99 184.17,17.33 C184.17,17.33 184.17,86.47 184.17,86.47 C184.17,95.81 176.43,103.56 166.82,103.56 C166.82,103.56 17.33,103.56 17.33,103.56 C7.99,103.56 0.25,95.81 0.25,86.47 C0.25,86.47 0.25,17.33 0.25,17.33 C0.25,7.99 7.99,0.25 17.33,0.25z  M6.92 30.95 C10.39,30.95 13.06,33.62 13.06,36.82 C13.06,36.82 13.06,66.99 13.06,66.99 C13.06,70.19 10.39,72.86 6.92,72.86 C6.92,72.86 6.92,86.47 6.92,86.47 C6.92,92.08 11.73,96.62 17.33,96.62 C17.33,96.62 166.82,96.62 166.82,96.62 C172.7,96.62 177.23,92.08 177.23,86.47 C177.23,86.47 177.23,17.33 177.23,17.33 C177.23,11.73 172.7,6.92 166.82,6.92 C166.82,6.92 17.33,6.92 17.33,6.92 C11.73,6.92 6.92,11.73 6.92,17.33 C6.92,17.33 6.92,30.95 6.92,30.95z "/></g><g id="_R_G_L_0_G"><path id="_R_G_L_0_G_D_0_P_0" fill="#93939d" fill-opacity="1" fill-rule="nonzero" d=" M31.75 0.25 C31.75,0.25 54.98,0.25 54.98,0.25 C57.11,0.25 59.25,2.12 59.25,4.52 C59.25,6.92 57.11,8.79 54.98,8.79 C54.98,8.79 31.75,8.79 31.75,8.79 C26.41,8.79 22.14,13.06 22.14,18.13 C22.14,18.13 22.14,36.29 22.14,36.29 C22.14,36.29 27.75,30.68 27.75,30.68 C31.75,26.68 37.89,32.82 33.89,36.55 C33.89,36.55 20.81,49.64 20.81,49.64 C19.2,51.24 16.53,51.24 14.93,49.64 C14.93,49.64 1.85,36.55 1.85,36.55 C0.25,34.95 0.25,32.28 1.85,30.68 C3.45,28.81 6.39,28.81 7.99,30.68 C7.99,30.68 13.6,36.29 13.6,36.29 C13.6,36.29 13.6,18.13 13.6,18.13 C13.6,8.26 21.61,0.25 31.75,0.25z "/></g></g><g id="time_group"/></svg>