<?xml version="1.0" encoding="UTF-8"?>
<!DOCTYPE svg PUBLIC "-//W3C//DTD SVG 1.1//EN" "http://www.w3.org/Graphics/SVG/1.1/DTD/svg11.dtd">
<!-- Creator: CorelDRAW 2021 (64-Bit) -->
<svg xmlns="http://www.w3.org/2000/svg" xml:space="preserve" width="800px" height="800px" version="1.1" style="shape-rendering:geometricPrecision; text-rendering:geometricPrecision; image-rendering:optimizeQuality; fill-rule:evenodd; clip-rule:evenodd"
viewBox="0 0 220.51 220.51"
 xmlns:xlink="http://www.w3.org/1999/xlink"
 xmlns:xodm="http://www.corel.com/coreldraw/odm/2003">
 <defs>
  <style type="text/css">
   <![CDATA[
    .fil0 {fill:none;fill-rule:nonzero}
    .fil2 {fill:#253254}
    .fil5 {fill:#66B8E8}
    .fil4 {fill:#D43F3F}
    .fil3 {fill:#EDBC53}
    .fil6 {fill:#253254;fill-rule:nonzero}
    .fil1 {fill:white;fill-rule:nonzero}
   ]]>
  </style>
 </defs>
 <g id="Слой_x0020_1">
  <metadata id="CorelCorpID_0Corel-Layer"/>
  <g id="_2423863516480">
   <rect class="fil0" width="220.51" height="220.51"/>
   <path class="fil1" d="M0 204.75l0 -189 124.9 0c52.5,0 95.05,42 95.05,94.5 0,52.5 -42.55,94.5 -95.05,94.5l-124.9 0z"/>
   <path class="fil2" d="M0 205.31l0 -5.5c10.46,0 125.45,0.02 125.45,-0.02 49.46,0 89.54,-40.08 89.54,-89.54 0,-49.45 -40.08,-89.54 -89.54,-89.54l-125.45 0 0 -5.51 125.45 0c52.5,0 95.06,42.55 95.06,95.05 0,52.5 -42.56,95.05 -95.06,95.05l-125.45 0.01z"/>
   <polygon class="fil3" points="94.11,130.32 128.74,150.35 163.35,130.32 128.74,110.29 "/>
   <polygon class="fil3" points="128.74,70.15 111.83,60.38 128.74,50.61 145.63,60.38 "/>
   <polygon class="fil4" points="128.74,110.29 128.74,70.15 163.35,90.25 163.35,130.32 "/>
   <polygon class="fil4" points="77.19,120.51 94.11,130.32 93.69,149.44 77.19,140.09 "/>
   <polygon class="fil5" points="94.11,90.22 128.74,70.15 128.74,110.29 94.11,130.32 "/>
   <polygon class="fil5" points="163.35,130.32 180.23,120.51 180.23,140.09 163.84,149.37 "/>
   <path class="fil6" d="M181.38 142.44l-16.53 9.59c-0.1,0.07 -0.24,0.14 -0.38,0.21l-34.22 19.79c-1.03,0.55 -1.87,0.6 -2.94,0.07 -17.09,-9.17 -34.5,-19.96 -51.38,-29.73 -0.84,-0.46 -1.3,-1.37 -1.3,-2.24l0 -59.68c0,-1.05 0.6,-1.93 1.44,-2.35l51.38 -29.7c0.84,-0.49 1.82,-0.45 2.59,0 17.13,9.14 34.6,20 51.55,29.84 1,0.7 1.16,1.73 1.16,2.21l0 59.54c0,1.13 -1.35,2.47 -1.37,2.45zm-98.97 -61.99l11.7 6.72 29.42 -17.02 -11.7 -6.76 -29.42 17.06zm9.07 11.28l-11.7 -6.76 0 34.07 11.7 6.76 0 -34.07zm25.57 -31.35l11.69 6.79 11.67 -6.79 -11.67 -6.79 -11.69 6.79zm14.29 91.48l0 13.55 21.85 -12.67 7.57 -4.38 0 -13.56 -29.42 17.06 0 0zm-5.22 13.55l0 -13.55 -29.42 -17.06 0 13.56 29.42 17.05zm39.85 -33.58l0 13.52 11.7 -6.76 0 -13.52 -11.7 6.76zm-74.49 13.52l0 -13.52 -11.7 -6.76 0 13.52 11.7 6.76zm86.19 -60.38l-11.7 6.76 0 34.04 11.7 -6.76 0 -34.08 0 0.04zm-14.25 2.24l11.66 -6.76 -29.45 -17.06 -11.67 6.76 29.46 17.06zm-34.68 26.05l-29.41 17.06 29.41 17.06 16.01 -9.28 13.45 -7.78 -29.46 -17.06zm-32.01 12.54l29.42 -17.05 0 -34.08 -29.42 17.02 0 34.08 0 0.03 0 0zm34.64 -17.05l29.42 17.05 0 -34.07 -29.42 -17.03 0 34.08 0 -0.03 0 0z"/>
   <path class="fil6" d="M128.74 130.43c11.11,0 20.11,-9.04 20.11,-20.14 0,-11.14 -9,-20.18 -20.11,-20.18 -11.13,0 -20.13,9.04 -20.13,20.18 0,11.1 9,20.14 20.13,20.14z"/>
   <path class="fil6" d="M27.79 110.26l24.08 23.53c2.03,1.96 2.03,5.15 0,7.11 -2,1.99 -5.29,1.99 -7.29,0l-27.63 -26.93c-2,-2 -2,-5.43 0,-7.43l27.6 -26.93c2.03,-1.96 5.29,-1.96 7.32,0 2.03,1.96 2.03,5.15 0,7.14l-24.08 23.51z"/>
  </g>
 </g>
</svg>
