<?xml version="1.0" encoding="UTF-8"?>
<!DOCTYPE svg PUBLIC "-//W3C//DTD SVG 1.1//EN" "http://www.w3.org/Graphics/SVG/1.1/DTD/svg11.dtd">
<!-- Creator: CorelDRAW 2021 (64-Bit) -->
<svg xmlns="http://www.w3.org/2000/svg" xml:space="preserve" width="400px" height="400px" version="1.1" style="shape-rendering:geometricPrecision; text-rendering:geometricPrecision; image-rendering:optimizeQuality; fill-rule:evenodd; clip-rule:evenodd"
viewBox="0 0 35.62 35.62"
 xmlns:xlink="http://www.w3.org/1999/xlink"
 xmlns:xodm="http://www.corel.com/coreldraw/odm/2003">
 <defs>
  <style type="text/css">
   <![CDATA[
    .fil0 {fill:#253254}
    .fil1 {fill:white;fill-rule:nonzero}
   ]]>
  </style>
 </defs>
 <g id="Слой_x0020_1">
  <metadata id="CorelCorpID_0Corel-Layer"/>
  <g id="_2388388755312">
   <path class="fil0" d="M15.51 12.79c0,1.5 -1.22,2.72 -2.72,2.72l-10.04 0c-1.51,0 -2.75,-1.2 -2.75,-2.72 0,-1.52 1.23,-2.75 2.75,-2.75l7.29 0 0 -7.29c0,-1.52 1.23,-2.75 2.75,-2.75 1.52,0 2.72,1.24 2.72,2.75l0 10.04zm-5.47 12.79l-7.29 0c-1.52,0 -2.75,-1.23 -2.75,-2.75 0,-1.52 1.24,-2.72 2.75,-2.72l10.04 0c1.5,0 2.72,1.22 2.72,2.72l0 10.04c0,1.51 -1.2,2.75 -2.72,2.75 -1.52,0 -2.75,-1.23 -2.75,-2.75l0 -7.29zm15.54 -15.54l7.29 0c1.52,0 2.75,1.23 2.75,2.75 0,1.52 -1.24,2.72 -2.75,2.72l-10.04 0c-1.5,0 -2.72,-1.22 -2.72,-2.72l0 -10.04c0,-1.51 1.2,-2.75 2.72,-2.75 1.52,0 2.75,1.23 2.75,2.75l0 7.29zm0 15.54l0 7.29c0,1.52 -1.23,2.75 -2.75,2.75 -1.52,0 -2.72,-1.24 -2.72,-2.75l0 -10.04c0,-1.5 1.22,-2.72 2.72,-2.72l10.04 0c1.51,0 2.75,1.2 2.75,2.72 0,1.52 -1.23,2.75 -2.75,2.75l-7.29 0z"/>
   <path class="fil1" d="M14.66 12.79c0,1.03 -0.84,1.87 -1.87,1.87l-10.04 0c-1.07,0 -1.9,-0.84 -1.9,-1.87 0,-1.03 0.83,-1.9 1.9,-1.9l8.14 0 0 -8.14c0,-1.07 0.87,-1.9 1.9,-1.9 1.03,0 1.87,0.83 1.87,1.9l0 10.04 0 0zm-3.77 11.94l-8.14 0c-1.07,0 -1.9,-0.87 -1.9,-1.9 0,-1.03 0.83,-1.87 1.9,-1.87l10.04 0c1.03,0 1.87,0.84 1.87,1.87l0 10.04c0,1.07 -0.84,1.9 -1.87,1.9 -1.03,0 -1.9,-0.83 -1.9,-1.9l0 -8.14 0 0zm13.84 -13.84l8.14 0c1.07,0 1.9,0.87 1.9,1.9 0,1.03 -0.83,1.87 -1.9,1.87l-10.04 0c-1.03,0 -1.87,-0.84 -1.87,-1.87l0 -10.04c0,-1.07 0.84,-1.9 1.87,-1.9 1.03,0 1.9,0.83 1.9,1.9l0 8.14 0 0zm0 13.84l0 8.14c0,1.07 -0.87,1.9 -1.9,1.9 -1.03,0 -1.87,-0.83 -1.87,-1.9l0 -10.04c0,-1.03 0.84,-1.87 1.87,-1.87l10.04 0c1.07,0 1.9,0.84 1.9,1.87 0,1.03 -0.83,1.9 -1.9,1.9l-8.14 0 0 0z"/>
  </g>
 </g>
</svg>
