<?xml version="1.0" encoding="UTF-8"?>
<!DOCTYPE svg PUBLIC "-//W3C//DTD SVG 1.1//EN" "http://www.w3.org/Graphics/SVG/1.1/DTD/svg11.dtd">
<!-- Creator: CorelDRAW 2021 (64-Bit) -->
<svg xmlns="http://www.w3.org/2000/svg" xml:space="preserve" width="256px" height="256px" version="1.1" style="shape-rendering:geometricPrecision; text-rendering:geometricPrecision; image-rendering:optimizeQuality; fill-rule:evenodd; clip-rule:evenodd"
viewBox="0 0 16.61 16.61"
 xmlns:xlink="http://www.w3.org/1999/xlink"
 xmlns:xodm="http://www.corel.com/coreldraw/odm/2003">
 <defs>
  <style type="text/css">
   <![CDATA[
    .fil0 {fill:none}
    .fil2 {fill:black;fill-rule:nonzero}
    .fil1 {fill:white;fill-rule:nonzero}
   ]]>
  </style>
 </defs>
 <g id="Слой_x0020_1">
  <metadata id="CorelCorpID_0Corel-Layer"/>
  <rect class="fil0" width="16.61" height="16.61"/>
  <path class="fil1" d="M8.3 2.3c3.32,0 6,2.69 6,6 0,3.32 -2.68,6 -6,6 -3.31,0 -6,-2.68 -6,-6 0,-3.31 2.69,-6 6,-6zm2.33 8.76c0.13,-0.38 0.71,-4.19 0.78,-4.93 0.03,-0.23 -0.05,-0.38 -0.19,-0.45 -0.17,-0.08 -0.42,-0.04 -0.71,0.06 -0.4,0.15 -5.52,2.32 -5.81,2.45 -0.28,0.12 -0.55,0.25 -0.55,0.43 0,0.14 0.08,0.21 0.3,0.29 0.22,0.08 0.79,0.25 1.12,0.34 0.32,0.09 0.69,0.01 0.9,-0.11 0.22,-0.14 2.73,-1.82 2.91,-1.97 0.18,-0.15 0.33,0.04 0.18,0.19 -0.15,0.15 -1.88,1.82 -2.1,2.06 -0.28,0.28 -0.08,0.57 0.1,0.69 0.21,0.13 1.74,1.15 1.97,1.32 0.23,0.16 0.46,0.23 0.67,0.23 0.22,0 0.33,-0.28 0.43,-0.6z"/>
  <path class="fil2" d="M8.3 2.16c1.7,0 3.24,0.68 4.35,1.8 1.11,1.11 1.8,2.65 1.8,4.34 0,1.7 -0.69,3.24 -1.8,4.35 -1.11,1.11 -2.65,1.8 -4.35,1.8 -1.69,0 -3.23,-0.69 -4.34,-1.8 -1.12,-1.11 -1.8,-2.65 -1.8,-4.35 0,-1.69 0.68,-3.23 1.8,-4.34 1.11,-1.12 2.65,-1.8 4.34,-1.8zm4.14 2c-1.06,-1.06 -2.52,-1.71 -4.14,-1.71 -1.61,0 -3.08,0.65 -4.14,1.71 -1.06,1.06 -1.71,2.53 -1.71,4.14 0,1.62 0.65,3.08 1.71,4.14 1.06,1.06 2.53,1.72 4.14,1.72 1.62,0 3.08,-0.66 4.14,-1.72 1.06,-1.06 1.72,-2.52 1.72,-4.14 0,-1.61 -0.66,-3.08 -1.72,-4.14zm-1.94 6.85c0.05,-0.17 0.2,-1.06 0.36,-2.05 0.18,-1.16 0.37,-2.45 0.41,-2.85 0.01,-0.08 0,-0.15 -0.02,-0.21 -0.02,-0.04 -0.05,-0.07 -0.09,-0.09 -0.06,-0.03 -0.14,-0.03 -0.23,-0.02 -0.11,0.01 -0.24,0.04 -0.37,0.09 -0.13,0.05 -0.83,0.34 -1.7,0.7 -1.69,0.72 -3.92,1.66 -4.11,1.74 -0.13,0.06 -0.26,0.12 -0.35,0.18 -0.06,0.04 -0.1,0.09 -0.1,0.12 0,0.03 0,0.05 0.02,0.06 0.03,0.03 0.09,0.06 0.17,0.09 0.12,0.04 0.3,0.1 0.5,0.16 0.21,0.07 0.45,0.13 0.62,0.18 0.13,0.04 0.27,0.04 0.41,0.03 0.14,-0.02 0.28,-0.07 0.37,-0.13 0.13,-0.07 1.04,-0.68 1.81,-1.2 0.55,-0.37 1.02,-0.7 1.09,-0.75 0.11,-0.09 0.21,-0.1 0.3,-0.08 0.04,0.02 0.08,0.04 0.11,0.08l0 0c0.03,0.03 0.05,0.07 0.06,0.11 0.02,0.09 -0.01,0.2 -0.1,0.29 -0.03,0.04 -0.33,0.32 -0.68,0.67 -0.56,0.54 -1.28,1.25 -1.42,1.39 -0.02,0.02 -0.04,0.04 -0.05,0.07 -0.05,0.06 -0.05,0.12 -0.04,0.18 0.02,0.06 0.05,0.11 0.1,0.16 0.02,0.02 0.05,0.04 0.07,0.05 0.11,0.07 0.56,0.38 1.01,0.68 0.43,0.28 0.85,0.57 0.96,0.65 0.1,0.07 0.2,0.12 0.3,0.16 0.1,0.03 0.2,0.05 0.29,0.05 0.05,0 0.09,-0.04 0.13,-0.11 0.06,-0.1 0.12,-0.24 0.17,-0.4zm0.65 -2c-0.16,1 -0.32,1.91 -0.38,2.09 -0.05,0.17 -0.11,0.34 -0.19,0.46 -0.09,0.15 -0.21,0.25 -0.38,0.25 -0.12,0 -0.25,-0.02 -0.39,-0.07 -0.12,-0.04 -0.24,-0.11 -0.37,-0.2 -0.11,-0.07 -0.53,-0.36 -0.95,-0.64 -0.45,-0.3 -0.9,-0.6 -1.01,-0.67 -0.04,-0.03 -0.08,-0.06 -0.11,-0.09 -0.08,-0.08 -0.15,-0.19 -0.18,-0.31 -0.03,-0.12 -0.02,-0.26 0.07,-0.4 0.02,-0.04 0.06,-0.08 0.09,-0.12 0.15,-0.14 0.87,-0.85 1.43,-1.39l0.52 -0.51c-0.2,0.14 -0.55,0.38 -0.94,0.64 -0.77,0.52 -1.69,1.13 -1.82,1.21 -0.12,0.08 -0.3,0.14 -0.49,0.16 -0.17,0.03 -0.35,0.02 -0.52,-0.03 -0.17,-0.04 -0.4,-0.11 -0.63,-0.18 -0.21,-0.07 -0.4,-0.13 -0.5,-0.16 -0.13,-0.05 -0.22,-0.1 -0.28,-0.16 -0.08,-0.07 -0.12,-0.16 -0.12,-0.27 0,-0.15 0.1,-0.26 0.24,-0.36 0.11,-0.08 0.25,-0.14 0.4,-0.21 0.2,-0.08 2.5,-1.06 4.11,-1.73 0.86,-0.37 1.56,-0.66 1.71,-0.71 0.16,-0.06 0.3,-0.1 0.44,-0.11 0.14,-0.02 0.27,0 0.39,0.05 0.1,0.05 0.18,0.13 0.22,0.24 0.05,0.1 0.06,0.21 0.05,0.35 -0.04,0.41 -0.23,1.7 -0.41,2.87z"/>
 </g>
</svg>
