<?xml version="1.0" encoding="UTF-8"?>
<!DOCTYPE svg PUBLIC "-//W3C//DTD SVG 1.1//EN" "http://www.w3.org/Graphics/SVG/1.1/DTD/svg11.dtd">
<!-- Creator: CorelDRAW 2021 (64-Bit) -->
<svg xmlns="http://www.w3.org/2000/svg" xml:space="preserve" width="400px" height="400px" version="1.1" style="shape-rendering:geometricPrecision; text-rendering:geometricPrecision; image-rendering:optimizeQuality; fill-rule:evenodd; clip-rule:evenodd"
viewBox="0 0 53.12 53.12"
 xmlns:xlink="http://www.w3.org/1999/xlink"
 xmlns:xodm="http://www.corel.com/coreldraw/odm/2003">
 <defs>
  <style type="text/css">
   <![CDATA[
    .fil0 {fill:#253254}
    .fil1 {fill:white;fill-rule:nonzero}
   ]]>
  </style>
 </defs>
 <g id="Слой_x0020_1">
  <metadata id="CorelCorpID_0Corel-Layer"/>
  <g id="_2423973825280">
   <path class="fil0" d="M0 4.08c0,-2.25 1.83,-4.08 4.08,-4.08l14.97 0c2.25,0 4.08,1.83 4.08,4.08 0,2.25 -1.83,4.08 -4.08,4.08l-10.89 0 0 10.89c0,2.25 -1.83,4.08 -4.08,4.08 -2.25,0 -4.08,-1.83 -4.08,-4.08l0 -14.97zm8.16 40.88l10.89 0c2.25,0 4.08,1.83 4.08,4.08 0,2.25 -1.83,4.08 -4.08,4.08l-14.97 0c-2.25,0 -4.08,-1.83 -4.08,-4.08l0 -14.97c0,-2.25 1.83,-4.07 4.08,-4.07 2.25,0 4.08,1.82 4.08,4.07l0 10.89zm36.8 -36.8l-10.89 0c-2.25,0 -4.07,-1.83 -4.07,-4.08 0,-2.25 1.82,-4.08 4.07,-4.08l14.97 0c2.25,0 4.08,1.83 4.08,4.08l0 14.97c0,2.25 -1.83,4.08 -4.08,4.08 -2.25,0 -4.08,-1.83 -4.08,-4.08l0 -10.89zm0 36.8l0 -10.89c0,-2.25 1.83,-4.07 4.08,-4.07 2.25,0 4.08,1.82 4.08,4.07l0 14.97c0,2.25 -1.83,4.08 -4.08,4.08l-14.97 0c-2.25,0 -4.07,-1.83 -4.07,-4.08 0,-2.25 1.82,-4.08 4.07,-4.08l10.89 0z"/>
   <path class="fil1" d="M1.26 4.08c0,-1.56 1.26,-2.82 2.82,-2.82l14.97 0c1.55,0 2.81,1.26 2.81,2.82 0,1.56 -1.26,2.81 -2.81,2.81l-12.16 0 0 12.16c0,1.55 -1.25,2.81 -2.81,2.81 -1.56,0 -2.82,-1.26 -2.82,-2.81l0 -14.97zm5.63 42.15l12.16 0c1.55,0 2.81,1.26 2.81,2.81 0,1.56 -1.26,2.82 -2.81,2.82l-14.97 0c-1.56,0 -2.82,-1.26 -2.82,-2.82l0 -14.97c0,-1.55 1.26,-2.81 2.82,-2.81 1.56,0 2.81,1.26 2.81,2.81l0 12.16zm39.34 -39.34l-12.16 0c-1.55,0 -2.81,-1.25 -2.81,-2.81 0,-1.56 1.26,-2.82 2.81,-2.82l14.97 0c1.56,0 2.82,1.26 2.82,2.82l0 14.97c0,1.55 -1.26,2.81 -2.82,2.81 -1.55,0 -2.81,-1.26 -2.81,-2.81l0 -12.16zm0 39.34l0 -12.16c0,-1.55 1.26,-2.81 2.81,-2.81 1.56,0 2.82,1.26 2.82,2.81l0 14.97c0,1.56 -1.26,2.82 -2.82,2.82l-14.97 0c-1.55,0 -2.81,-1.26 -2.81,-2.82 0,-1.55 1.26,-2.81 2.81,-2.81l12.16 0z"/>
  </g>
 </g>
</svg>
